<svg width="540" height="220" viewBox="0 0 540 220" fill="none" xmlns="http://www.w3.org/2000/svg">
<path fill-rule="evenodd" clip-rule="evenodd" d="M15 156H29V58H84V104H88V15H147V96L163 104V164H155V110L147 106V164H115V84L139 93V23H96V113H84V168H57V104H76V66H37V168H15V156ZM65 113V160H76V113H65ZM123 96V156H139V103L123 96Z" fill="#E00B41"/>
<path fill-rule="evenodd" clip-rule="evenodd" d="M180 97L218 35L258 92L245 103L218 60L192 108L180 97ZM273 35H288V122H273V71H251V56H273V35Z" fill="#222222"/>
<path fill-rule="evenodd" clip-rule="evenodd" d="M204 117H215.384V148H522V160H204V117Z" fill="#222222"/>
<path fill-rule="evenodd" clip-rule="evenodd" d="M207 204.538V177.462H211.394V201.343H227.747V204.538H207ZM233.726 204.538V177.462H238.12V204.538H233.726ZM245.821 204.538V177.462H250.328L267.768 198.72V177.462H271.981V204.538H267.474L250.034 183.261V204.538H245.821ZM279.455 204.538V177.462H303.463V180.657H283.849V188.95H302.218V192.127H283.849V201.343H304.234V204.538H279.455Z" fill="#222222"/>
<path fill-rule="evenodd" clip-rule="evenodd" d="M323.259 204.538L336.011 177.462H340.744L354.334 204.538H349.328L345.455 196.338H331.571L327.925 204.538H323.259ZM332.84 193.419H344.096L340.631 185.921C339.574 183.643 338.789 181.772 338.276 180.306C337.853 182.042 337.256 183.766 336.486 185.478L332.84 193.419Z" fill="#222222"/>
<path fill-rule="evenodd" clip-rule="evenodd" d="M380.055 177.462H384.449V193.106C384.449 195.827 384.071 197.988 383.316 199.588C382.561 201.189 381.198 202.491 379.228 203.494C377.257 204.498 374.672 205 371.47 205C368.36 205 365.816 204.563 363.838 203.688C361.859 202.814 360.448 201.549 359.602 199.893C358.757 198.237 358.334 195.974 358.334 193.106V177.462H362.728V193.087C362.728 195.439 362.996 197.172 363.532 198.286C364.068 199.4 364.989 200.259 366.295 200.863C367.601 201.466 369.198 201.768 371.085 201.768C374.317 201.768 376.619 201.17 377.993 199.976C379.367 198.782 380.055 196.485 380.055 193.087V177.462Z" fill="#222222"/>
<path fill-rule="evenodd" clip-rule="evenodd" d="M413.409 195.045L417.803 195.95C416.882 198.893 415.225 201.137 412.831 202.682C410.438 204.227 407.513 205 404.055 205C400.476 205 397.566 204.406 395.323 203.217C393.081 202.029 391.375 200.309 390.205 198.055C389.034 195.802 388.449 193.383 388.449 190.797C388.449 187.977 389.11 185.518 390.431 183.418C391.752 181.319 393.632 179.724 396.071 178.635C398.509 177.545 401.193 177 404.123 177C407.445 177 410.238 177.69 412.503 179.069C414.768 180.448 416.346 182.387 417.237 184.887L412.911 185.718C412.141 183.748 411.023 182.313 409.559 181.414C408.094 180.516 406.252 180.066 404.032 180.066C401.48 180.066 399.347 180.565 397.634 181.562C395.92 182.56 394.716 183.899 394.021 185.579C393.326 187.26 392.979 188.993 392.979 190.778C392.979 193.081 393.391 195.091 394.214 196.809C395.036 198.526 396.316 199.81 398.053 200.659C399.789 201.509 401.669 201.934 403.692 201.934C406.154 201.934 408.237 201.355 409.944 200.198C411.65 199.04 412.805 197.323 413.409 195.045Z" fill="#222222"/>
<path fill-rule="evenodd" clip-rule="evenodd" d="M432.742 204.538V180.657H421.803V177.462H448.121V180.657H437.136V204.538H432.742Z" fill="#222222"/>
<path fill-rule="evenodd" clip-rule="evenodd" d="M452.121 204.538V177.462H456.515V204.538H452.121Z" fill="#222222"/>
<path fill-rule="evenodd" clip-rule="evenodd" d="M460.515 191.351C460.515 186.857 461.994 183.338 464.954 180.796C467.914 178.253 471.734 176.982 476.415 176.982C479.48 176.982 482.243 177.579 484.704 178.773C487.166 179.968 489.042 181.633 490.333 183.769C491.624 185.906 492.269 188.328 492.269 191.037C492.269 193.783 491.59 196.239 490.231 198.406C488.872 200.573 486.947 202.214 484.455 203.328C481.964 204.443 479.276 205 476.392 205C473.266 205 470.473 204.384 468.012 203.153C465.55 201.922 463.686 200.241 462.417 198.111C461.149 195.981 460.515 193.727 460.515 191.351ZM465.045 191.406C465.045 194.669 466.12 197.24 468.272 199.117C470.424 200.995 473.123 201.934 476.369 201.934C479.676 201.934 482.398 200.986 484.534 199.09C486.671 197.193 487.739 194.503 487.739 191.018C487.739 188.814 487.283 186.891 486.369 185.247C485.455 183.603 484.119 182.329 482.36 181.424C480.601 180.519 478.627 180.066 476.437 180.066C473.327 180.066 470.65 180.937 468.408 182.68C466.166 184.422 465.045 187.331 465.045 191.406Z" fill="#222222"/>
<path fill-rule="evenodd" clip-rule="evenodd" d="M496 204.538V177.462H500.507L517.947 198.72V177.462H522.16V204.538H517.653L500.213 183.261V204.538H496Z" fill="#222222"/>
<path d="M369.412 47.372H392.848V58.712H369.412V47.372ZM368.548 68H392.092V79.556H368.548V68ZM390.472 31.496H404.944V89.06H390.472V31.496ZM357.964 38.3H373.192C373.192 47.372 371.5 55.4 368.116 62.384C364.732 69.296 359.656 75.164 352.888 79.988C346.12 84.74 337.66 88.52 327.508 91.328L322 80.096C330.496 77.864 337.372 75.056 342.628 71.672C347.884 68.216 351.736 64.256 354.184 59.792C356.704 55.328 357.964 50.504 357.964 45.32V38.3ZM327.4 38.3H368.008V49.748H327.4V38.3ZM371.788 90.356C378.556 90.356 384.46 91.184 389.5 92.84C394.612 94.496 398.536 96.836 401.272 99.86C404.08 102.884 405.484 106.484 405.484 110.66C405.484 114.836 404.08 118.436 401.272 121.46C398.536 124.484 394.612 126.824 389.5 128.48C384.46 130.208 378.556 131.072 371.788 131.072C365.02 131.072 359.08 130.208 353.968 128.48C348.928 126.824 345.004 124.484 342.196 121.46C339.388 118.436 337.984 114.836 337.984 110.66C337.984 106.484 339.388 102.884 342.196 99.86C345.004 96.836 348.928 94.496 353.968 92.84C359.08 91.184 365.02 90.356 371.788 90.356ZM371.788 101.372C367.684 101.372 364.156 101.732 361.204 102.452C358.324 103.172 356.092 104.216 354.508 105.584C352.924 106.952 352.132 108.644 352.132 110.66C352.132 112.676 352.924 114.404 354.508 115.844C356.092 117.212 358.324 118.256 361.204 118.976C364.156 119.624 367.684 119.948 371.788 119.948C375.892 119.948 379.384 119.624 382.264 118.976C385.144 118.256 387.376 117.212 388.96 115.844C390.544 114.404 391.336 112.676 391.336 110.66C391.336 108.644 390.544 106.952 388.96 105.584C387.376 104.216 385.144 103.172 382.264 102.452C379.384 101.732 375.892 101.372 371.788 101.372Z" fill="#222222"/>
<path d="M508.336 31.496H522.052V131.504H508.336V31.496ZM496.348 69.728H512.98V81.176H496.348V69.728ZM486.52 33.116H499.912V127.076H486.52V33.116ZM439 41.756H478.42V106.556H439V41.756ZM465.136 52.988H452.392V95.432H465.136V52.988Z" fill="#222222"/>
</svg>
